<svg width="1" height="1" version="1.1" viewBox="0 0 1 1" xmlns="http://www.w3.org/2000/svg"><path d="m0.1 1c-0.062 0.089-0.16 0.073-0.19-0.0036-0.016-0.064 0.083-0.057 0.13-0.058 0.012-1.5e-4 0.024 0.0051 0.034 0.015 0.012 0.011 0.036 0.021 0.032 0.046zm0.043-0.17c-0.014 0.052-0.075 0.063-0.12 0.069-0.051 0.021-0.13-0.034-0.097-0.089 0.049-0.063 0.15-0.087 0.22-0.038 0.013 0.017 0.0061 0.039 7.6e-4 0.057zm0.034-0.21c0.0039 0.064-0.071 0.087-0.12 0.1-0.067 0.019-0.16 0.0023-0.18-0.069-0.02-0.054 0.021-0.12 0.082-0.12 0.083-0.016 0.18 0.016 0.22 0.092zm0.068-0.47c-0.0038 0.1 0.021 0.21-0.039 0.3-0.041 0.049-0.11 0.04-0.17 0.034-0.06-0.0013-0.13 0.034-0.18-0.0051-0.069-0.055-0.077-0.15-0.096-0.23-0.02-0.11-0.024-0.23 0.042-0.32 0.067-0.077 0.18-0.083 0.28-0.058 0.066 0.02 0.12 0.075 0.14 0.14 0.018 0.043 0.033 0.089 0.029 0.14z"/></svg>
