<svg width="1" height="1" version="1.1" viewBox="0 0 1 1" xmlns="http://www.w3.org/2000/svg"><path d="m0.031 0.62c-0.0015-0.018-0.016-0.023-0.022-0.0081s-0.0027 0.05 0.0047 0.053c0.0073 0.0027 0.019-0.027 0.018-0.044zm-0.1 0.0035c0.0017 0.018 0.019 0.045 0.025 0.041 0.0067-4e-3 0.0036-0.039-0.0048-0.052-0.0084-0.014-0.022-0.0058-0.02 0.012zm0.28-0.26c-0.0046-0.031-0.035-0.06-0.075-0.052-0.039 0.0082-0.086 0.053-0.096 0.091-0.0097 0.038 0.017 0.068 0.045 0.076s0.058-0.0066 0.083-0.03c0.026-0.023 0.047-0.055 0.042-0.086zm-0.47 0.041c1e-3 0.031 0.028 0.059 0.057 0.077 0.029 0.018 0.061 0.027 0.087 0.014 0.026-0.013 0.047-0.048 0.031-0.083-0.016-0.035-0.071-0.071-0.11-0.072-0.04-0.0011-0.065 0.033-0.064 0.064zm0.043 0.31c0.0015 0.059 0.0046 0.18 0.0087 0.22 0.0041 0.042 0.0093 8e-3 0.02-8e-3 0.011-0.016 0.027-0.014 0.039 0.0041 0.012 0.018 0.019 0.051 0.025 0.049 0.0053-0.0013 0.0083-0.037 0.025-0.054 0.016-0.018 0.045-0.017 0.063 0.0012 0.017 0.018 0.023 0.054 0.027 0.054 0.0034 1.4e-5 0.0043-0.036 0.017-0.055s0.038-0.022 0.053-0.0051c0.016 0.016 0.023 0.051 0.027 0.05 0.0044-4.6e-4 6e-3 -0.036 0.021-0.055 0.015-0.02 0.042-0.024 0.056-0.011 0.014 0.013 0.014 0.043 0.016 0.0036 2e-3 -0.039 0.0053-0.15 0.016-0.21 0.011-0.066 0.029-0.089 0.045-0.026s0.03 0.21 7.7e-4 0.3c-0.029 0.087-0.1 0.11-0.16 0.12-0.058 0.013-0.1 0.014-0.17 0.0042-0.065-0.0097-0.15-0.03-0.19-0.11-0.038-0.083-0.025-0.23-0.0074-0.29 0.018-0.065 0.041-0.049 0.052-0.041 0.011 0.0077 0.011 0.0077 0.013 0.067zm-0.017-0.1c-0.03-0.01-0.089-0.031-0.13-0.096-0.041-0.065-0.063-0.18-0.045-0.28s0.075-0.22 0.18-0.28c0.1-0.061 0.25-0.076 0.37-0.028 0.12 0.048 0.2 0.16 0.23 0.27 0.03 0.11 0.0083 0.22-0.039 0.29-0.047 0.067-0.12 0.091-0.15 0.14-0.026 0.052-0.0052 0.13-0.011 0.18-0.0059 0.044-0.039 0.054-0.06 0.041-0.021-0.013-0.031-0.049-0.037-0.049-0.0059 8.1e-5 -0.0082 0.037-0.02 0.056-0.012 0.019-0.034 0.02-0.048 7e-4 -0.015-0.019-0.022-0.06-0.027-0.058-0.0048 0.0011-0.0072 0.044-0.02 0.066-0.013 0.022-0.036 0.023-0.05 0.0026s-0.018-0.063-0.023-0.063c-0.0052 7.6e-4 -0.011 0.045-0.027 0.068s-0.042 0.024-0.055-0.019-0.012-0.13-0.011-0.18c4.6e-4 -0.045 4.6e-4 -0.045-0.029-0.055z"/></svg>
