<svg width="1" height="1" version="1.1" viewBox="0 0 1 1" xmlns="http://www.w3.org/2000/svg"><path d="m-0.25 0.43c-5e-3 0.13-0.0075 0.23 0.0037 0.32 0.011 0.088 0.036 0.17 0.055 0.17 0.021 8.4e-4 0.037-0.075 0.055-0.041 0.019 0.033 0.039 0.17 0.055 0.19 0.017 9e-3 0.029-0.11 0.048-0.11 0.019 0.0057 0.044 0.13 0.065 0.15 0.021 0.0056 0.039-0.12 0.055-0.13 0.017-0.02 0.033 0.064 0.048 0.059 0.015-0.0057 0.029-0.1 0.042-0.12 0.014-0.023 0.028 0.027 0.041-0.036s0.027-0.24 0.028-0.4c9.5e-4 -0.16-0.01-0.29-0.028-0.33-0.018-0.033-0.043 0.039-0.065 0.01-0.022-0.029-0.041-0.16-0.055-0.17-0.015-0.013-0.026 0.09-0.043 0.072s-0.04-0.16-0.06-0.16c-0.021-0.0043-0.038 0.13-0.06 0.15-0.022 0.012-0.055-0.064-0.07-0.062-0.018 0.0031-0.024 0.093-0.038 0.11-0.014 0.02-0.034-0.035-0.048 0.015-0.014 0.05-0.022 0.2-0.027 0.33z"/></svg>
