<svg width="1" height="1" version="1.1" viewBox="0 0 1 1" xmlns="http://www.w3.org/2000/svg"><path d="m-0.021 1.1c-0.063 0.016-0.14 0.019-0.19-0.061-0.022-0.065 0.0076-0.16 0.044-0.17 0.035-0.018 0.029-0.14-0.0086-0.14-0.033 0.017-0.063-0.076-0.036-0.12 0.032-0.014 0.05-0.11 0.012-0.14-0.029-0.0044-0.061-0.057-0.051-0.12 0.0061-0.045 0.029-0.064 0.05-0.075 0.04-0.012 0.036-0.12-1.4e-4 -0.14-0.03-0.024-0.03-0.1-0.014-0.15 0.026-0.079 0.078-0.096 0.12-0.087 0.05 0.012 0.1 0.016 0.15 0.021 0.051 0.0066 0.11 0.029 0.14 0.098 0.024 0.051 8.8e-4 0.13-0.031 0.14-0.028-0.0037-0.066-0.01-0.08 0.052-0.011 0.075 0.037 0.099 0.066 0.11 0.031 0.0059 0.054 0.091 0.026 0.13-0.02 0.053-0.062 0.0031-0.078 0.058-0.012 0.069 0.028 0.099 0.056 0.083 0.033-0.0017 0.072 0.022 0.083 0.089 0.01 0.069-0.032 0.12-0.064 0.11-0.025-0.0068-0.063 0.016-0.058 0.078 0.0037 0.087 0.06 0.032 0.078 0.088 0.019 0.064-0.015 0.13-0.048 0.13-0.045 0.014-0.09-0.03-0.13-0.0034"/></svg>
